<svg id="Capa_1" data-name="Capa 1" xmlns="http://www.w3.org/2000/svg" viewBox="0 0 612 396"><defs><style>.cls-1{fill:#4cb057;}.cls-2{fill:#e20714;}.cls-3{fill:#1766ab;}</style></defs><path class="cls-1" d="M80,391.43a282.69,282.69,0,0,1,27.92-8.83c9.44-2.56,19-4.71,28.53-6.77s19.19-3.72,28.82-5.41c4.83-.78,9.65-1.55,14.49-2.26l7.26-1c2.42-.34,4.84-.7,7.27-1q29.08-3.78,58.36-5.75c19.5-1.33,39-2.24,58.57-2.61,4.88-.14,9.77-.13,14.65-.19l7.33-.06c2.44,0,4.88-.05,7.32,0,9.77.1,19.54.1,29.3.41l14.65.39,14.63.6c9.76.35,19.5,1,29.24,1.58,39,2.54,77.82,6.49,116.39,12.32-38.95-2.06-77.83-4.11-116.72-5.21l-14.58-.39c-2.44-.05-4.86-.16-7.29-.19l-7.29-.13-14.58-.27-14.58-.12q-29.16-.28-58.29.33l-14.56.32-14.56.5c-2.43.08-4.86.14-7.28.24l-7.28.34c-4.85.23-9.7.41-14.54.71s-9.7.52-14.55.83l-14.53,1-14.51,1.15c-4.84.38-9.67.86-14.51,1.29-19.33,1.83-38.64,4-57.85,7-2.4.35-4.81.7-7.2,1.1s-4.8.76-7.2,1.17l-7.18,1.26L108.5,385l-7.16,1.41c-2.37.51-4.76,1-7.13,1.53C89.45,389,84.72,390.13,80,391.43Z"/><path class="cls-2" d="M196.65,208.9v93.28h-27V268.86H153.8v33.32h-27V208.9h27v32.94h15.83V208.9Z"/><path class="cls-2" d="M249.52,207.1a47.17,47.17,0,0,1,18.85,3.8,48.49,48.49,0,0,1,25.73,25.73,48.75,48.75,0,0,1,0,37.69,48.4,48.4,0,0,1-25.73,25.73,48.65,48.65,0,0,1-37.7,0,48.4,48.4,0,0,1-25.73-25.73,48.75,48.75,0,0,1,0-37.69,48.49,48.49,0,0,1,25.73-25.73A47.17,47.17,0,0,1,249.52,207.1Zm20.71,48.25a19.83,19.83,0,0,0-1.61-8,20,20,0,0,0-10.74-10.74,20.56,20.56,0,0,0-15.95,0,21.25,21.25,0,0,0-6.5,4.31,20.41,20.41,0,0,0-4.37,22.38,20.43,20.43,0,0,0,10.87,10.88,20.25,20.25,0,0,0,22.38-4.38,21,21,0,0,0,4.31-6.5A19.75,19.75,0,0,0,270.23,255.35Z"/><path class="cls-2" d="M390,246.47v56.09l-25.35-.13v-2.7a50.13,50.13,0,0,1-12.48,3A47.43,47.43,0,0,1,327,298.64a44.32,44.32,0,0,1-11.13-7.4,45.12,45.12,0,0,1-11.32-15A48.76,48.76,0,0,1,300,258.63a47.42,47.42,0,0,1,2.38-18,46.93,46.93,0,0,1,9.4-16.28,43.74,43.74,0,0,1,15.11-10.93,59.71,59.71,0,0,1,38.21-3.48,44.54,44.54,0,0,1,16.92,8L364.4,237.72a25.28,25.28,0,0,0-9.65-3.54,29.67,29.67,0,0,0-9.52.13,27.73,27.73,0,0,0-8.16,2.83,15,15,0,0,0-5.47,4.7,26.44,26.44,0,0,0-3.67,7.46,24.41,24.41,0,0,0-1.09,8,20.41,20.41,0,0,0,1.73,7.65,18,18,0,0,0,5,6.5,19.25,19.25,0,0,0,7.14,4.24,20.23,20.23,0,0,0,8,1,22.94,22.94,0,0,0,7.85-2.06,20.32,20.32,0,0,0,6.76-5.08l.51-.64h-12l4.76-22.52Z"/><path class="cls-2" d="M454.07,208.9l28.82,93.28h-27l-2.95-11.07H424.74l-2.83,11.07h-27l28.82-93.28Zm-9.9,56.1-5.28-21.49L433.49,265Z"/><path class="cls-2" d="M562.65,302.18H533.58q-5.79-8.49-9.59-13.58T517.82,281a14.16,14.16,0,0,0-3.54-3.09c-.77-.34-1.31-.3-1.61.13a3.37,3.37,0,0,0-.45,1.93v22.26h-27V208.9h35.37a27.2,27.2,0,0,1,12.16,3,37.48,37.48,0,0,1,10.36,7.47,33.14,33.14,0,0,1,7.65,11.7,35.29,35.29,0,0,1,2.38,13.38,36.41,36.41,0,0,1-2.89,13.45,38,38,0,0,1-7.91,11.9ZM527,243.25a8.79,8.79,0,0,0-8.88-8.87H512v17.88h6.18a8.44,8.44,0,0,0,6.3-2.64A8.76,8.76,0,0,0,527,243.25Z"/><path class="cls-2" d="M201,122.68V200H178.6V160l-14.17,18.86-14-18.86v40H128.08V122.68h22.38l14,18.76,14.17-18.76Z"/><path class="cls-2" d="M210.8,122.68h33.47v19.93h-5.55V180h5.55V200H210.8V180h5.54V142.61H210.8Z"/><path class="cls-3" d="M339.22,165.92,188.6,15.32,38,165.92a8.34,8.34,0,0,0,0,11.75l4.52,4.52a8.34,8.34,0,0,0,11.75,0l21-21V304.57c7.22-2.59,16.15-5.69,24.8-8.43V136.4l1.32-1.33c5.89-5.87,80.47-80.45,84-84l3.2-3.2,3.19,3.19c1.75,1.74,28.23,28.21,51.58,51.57l32.45,32.44,1.33,1.33v61.74c9,3.34,19.69,10.51,24.8,22.22V161.2l21,21a8.34,8.34,0,0,0,11.75,0l4.53-4.52A8.33,8.33,0,0,0,339.22,165.92Z"/><path class="cls-3" d="M126.18,313.92h18.73V321h-10.3v7.28h9v7.06h-9v8.15h10.71v7H126.18Z"/><path class="cls-3" d="M151.14,313.92h8.43v29.55h9.16v7H151.14Z"/><path class="cls-3" d="M173.54,313.92h18.73V321H182v7.28h9v7.06h-9v8.15h10.71v7H173.54Z"/><path class="cls-3" d="M198.5,323.91q0-5.18,3-7.88a12.83,12.83,0,0,1,15.75,0q3,2.7,3,7.88v3.39h-8.43v-4.12c0-.46,0-.86,0-1.19a3.19,3.19,0,0,0-.28-1,1.88,1.88,0,0,0-.73-.83,2.57,2.57,0,0,0-1.37-.32,2.61,2.61,0,0,0-1.38.32,1.94,1.94,0,0,0-.73.83,3.19,3.19,0,0,0-.28,1c0,.33,0,.73,0,1.19v18.09c0,.37,0,.72,0,1.05a3.71,3.71,0,0,0,.28,1.06,2,2,0,0,0,.73.89,2.43,2.43,0,0,0,1.38.34,2.4,2.4,0,0,0,1.37-.34,2,2,0,0,0,.73-.89,3.71,3.71,0,0,0,.28-1.06c0-.33,0-.68,0-1.05v-5.36h8.43v4.63a10.31,10.31,0,0,1-2.93,7.74,12.48,12.48,0,0,1-15.85,0,10.31,10.31,0,0,1-2.93-7.74Z"/><path class="cls-3" d="M224.65,313.92H244V321h-5.45v29.54H230.1V321h-5.45Z"/><path class="cls-3" d="M248.43,313.92h11.13c3.81,0,6.55.67,8.19,2s2.48,3.61,2.48,6.84a12.56,12.56,0,0,1-1,5.57q-1,1.95-4.1,2.91v.09a6.16,6.16,0,0,1,3.6,2,5.72,5.72,0,0,1,1.3,3.83v6.46c0,2,.06,3.55.16,4.62a4.54,4.54,0,0,0,.71,2.29h-8.33a4.59,4.59,0,0,1-.8-2.52c-.11-1.16-.16-2.62-.16-4.39v-5.87a3.09,3.09,0,0,0-.74-2.31,3.5,3.5,0,0,0-2.47-.71h-1.56v15.8h-8.42Zm8.42,14.57h2.06c1.29,0,2.09-.34,2.41-1a8.28,8.28,0,0,0,.48-3.28,6.65,6.65,0,0,0-.53-3.16c-.35-.58-1.27-.87-2.77-.87h-1.65Z"/><path class="cls-3" d="M276,323.91q0-5.18,3-7.88a12.85,12.85,0,0,1,15.76,0q3,2.7,3,7.88v16.63a10.27,10.27,0,0,1-2.93,7.74,12.48,12.48,0,0,1-15.85,0,10.31,10.31,0,0,1-2.93-7.74Zm8.43,17.36c0,.37,0,.72.05,1.05a3.68,3.68,0,0,0,.27,1.06,2,2,0,0,0,.73.89,2.43,2.43,0,0,0,1.38.34,2.37,2.37,0,0,0,1.37-.34,2.06,2.06,0,0,0,.74-.89,3.68,3.68,0,0,0,.27-1.06c0-.33.05-.68.05-1.05V323.18c0-.46,0-.86-.05-1.19a3.16,3.16,0,0,0-.27-1,2,2,0,0,0-.74-.83,2.55,2.55,0,0,0-1.37-.32,2.61,2.61,0,0,0-1.38.32,1.94,1.94,0,0,0-.73.83,3.16,3.16,0,0,0-.27,1c0,.33-.05.73-.05,1.19Z"/><path class="cls-3" d="M303.48,313.92H316a12,12,0,0,1,4.4.71,6.9,6.9,0,0,1,2.84,2,7.79,7.79,0,0,1,1.49,3.07,16.77,16.77,0,0,1,.43,4v17.4a10.49,10.49,0,0,1-.78,4.22,8.24,8.24,0,0,1-2.08,2.93A8.53,8.53,0,0,1,319.4,350a10.39,10.39,0,0,1-3.37.55H303.48Zm8.43,30.37h1.33q3.52,0,3.52-3.11V323.27q0-3.12-3.52-3.12h-1.33Z"/><path class="cls-3" d="M331,323.91q0-5.18,3-7.88a12.83,12.83,0,0,1,15.75,0q3,2.7,3,7.88v16.63a10.31,10.31,0,0,1-2.93,7.74,12.48,12.48,0,0,1-15.85,0,10.31,10.31,0,0,1-2.93-7.74Zm8.43,17.36c0,.37,0,.72,0,1.05a3.41,3.41,0,0,0,.28,1.06,2,2,0,0,0,.73.89,2.4,2.4,0,0,0,1.37.34,2.43,2.43,0,0,0,1.38-.34,2,2,0,0,0,.73-.89,4.07,4.07,0,0,0,.28-1.06c0-.33,0-.68,0-1.05V323.18c0-.46,0-.86,0-1.19a3.47,3.47,0,0,0-.28-1,1.94,1.94,0,0,0-.73-.83,2.61,2.61,0,0,0-1.38-.32,2.57,2.57,0,0,0-1.37.32,1.88,1.88,0,0,0-.73.83,2.94,2.94,0,0,0-.28,1c0,.33,0,.73,0,1.19Z"/><path class="cls-3" d="M358.77,313.92h13.28l2.38,18.14h.09l2.38-18.14h13.29v36.6H382V322.08h-.09l-4.72,28.44h-5.49L367,322.08h-.09v28.44h-8.15Z"/><path class="cls-3" d="M396.23,313.92H415V321h-10.3v7.28h9v7.06h-9v8.15h10.72v7H396.23Zm8.7-8.42H412l-4.85,6.23h-4.4Z"/><path class="cls-3" d="M429,338.11v2.7a5.48,5.48,0,0,0,.59,2.77,2.37,2.37,0,0,0,2.25,1,2.84,2.84,0,0,0,2.15-.8,2.79,2.79,0,0,0,.78-2,5,5,0,0,0-1.47-3.55,32.28,32.28,0,0,0-4.49-3.68c-.15-.13-.39-.31-.73-.55l-1.1-.92c-1-.76-1.77-1.42-2.38-2a11.22,11.22,0,0,1-1.67-1.88,8.34,8.34,0,0,1-1.19-2.45,10.67,10.67,0,0,1-.44-3.18q0-5.26,2.77-7.76c1.85-1.67,4.51-2.5,8-2.5s6.22.81,7.94,2.43a8.83,8.83,0,0,1,2.59,6.78v3.29h-7.88v-2a6.84,6.84,0,0,0-.52-2.9,2.13,2.13,0,0,0-2.13-1.13,3,3,0,0,0-2.11.74,2.63,2.63,0,0,0-.78,2,4.23,4.23,0,0,0,1.6,2.91,53.73,53.73,0,0,0,4.81,3.92l.6.45,1.46,1.24A25.49,25.49,0,0,1,440,333a10.88,10.88,0,0,1,1.6,2,10.44,10.44,0,0,1,1.22,2.84,14.88,14.88,0,0,1,.46,3.89,8.75,8.75,0,0,1-.6,3.07,9.39,9.39,0,0,1-1.92,3.05,9.55,9.55,0,0,1-3.58,2.33,14.33,14.33,0,0,1-5.35.9,14,14,0,0,1-5.09-.83,9.1,9.1,0,0,1-3.39-2.2,8.8,8.8,0,0,1-2.43-6v-3.94Z"/><path class="cls-3" d="M447.35,313.92h19.33V321h-5.45v29.54H452.8V321h-5.45Z"/><path class="cls-3" d="M471.39,313.92h8.43v36.6h-8.43Z"/><path class="cls-3" d="M485.91,323.91c0-3.45,1-6.08,3-7.88a12.85,12.85,0,0,1,15.76,0q3,2.7,3,7.88v3.39H499.2v-4.12c0-.46,0-.86-.05-1.19a3.16,3.16,0,0,0-.27-1,2,2,0,0,0-.74-.83,3.09,3.09,0,0,0-2.74,0,1.9,1.9,0,0,0-.74.83,3.16,3.16,0,0,0-.27,1c0,.33-.05.73-.05,1.19v18.09c0,.37,0,.72.05,1.05a3.68,3.68,0,0,0,.27,1.06,2,2,0,0,0,.74.89,2.93,2.93,0,0,0,2.74,0,2.06,2.06,0,0,0,.74-.89,3.68,3.68,0,0,0,.27-1.06c0-.33.05-.68.05-1.05v-5.36h8.42v4.63a10.27,10.27,0,0,1-2.93,7.74,12.48,12.48,0,0,1-15.85,0,10.31,10.31,0,0,1-2.93-7.74Z"/><path class="cls-3" d="M513.44,323.91q0-5.18,3-7.88a12.83,12.83,0,0,1,15.75,0q3,2.7,3,7.88v16.63a10.31,10.31,0,0,1-2.93,7.74,12.48,12.48,0,0,1-15.85,0,10.31,10.31,0,0,1-2.93-7.74Zm8.43,17.36c0,.37,0,.72,0,1.05a3.71,3.71,0,0,0,.28,1.06,2,2,0,0,0,.73.89,2.43,2.43,0,0,0,1.38.34,2.4,2.4,0,0,0,1.37-.34,2,2,0,0,0,.73-.89,3.41,3.41,0,0,0,.28-1.06c0-.33,0-.68,0-1.05V323.18c0-.46,0-.86,0-1.19a2.94,2.94,0,0,0-.28-1,1.88,1.88,0,0,0-.73-.83,2.57,2.57,0,0,0-1.37-.32,2.61,2.61,0,0,0-1.38.32,1.94,1.94,0,0,0-.73.83,3.19,3.19,0,0,0-.28,1c0,.33,0,.73,0,1.19Z"/><path class="cls-3" d="M548.8,338.11v2.7a5.47,5.47,0,0,0,.6,2.77,2.35,2.35,0,0,0,2.24,1,2.83,2.83,0,0,0,2.15-.8,2.79,2.79,0,0,0,.78-2,5,5,0,0,0-1.46-3.55,32.9,32.9,0,0,0-4.49-3.68c-.16-.13-.4-.31-.74-.55l-1.09-.92c-1-.76-1.78-1.42-2.39-2a11.67,11.67,0,0,1-1.67-1.88,8.59,8.59,0,0,1-1.19-2.45,10.69,10.69,0,0,1-.43-3.18q0-5.26,2.77-7.76c1.84-1.67,4.51-2.5,8-2.5s6.22.81,8,2.43a8.86,8.86,0,0,1,2.58,6.78v3.29h-7.87v-2A6.83,6.83,0,0,0,554,321a2.11,2.11,0,0,0-2.13-1.13,3,3,0,0,0-2.11.74,2.63,2.63,0,0,0-.78,2,4.25,4.25,0,0,0,1.61,2.91,53.73,53.73,0,0,0,4.81,3.92l.59.45c.34.28.83.69,1.47,1.24a28.75,28.75,0,0,1,2.27,1.92,11.77,11.77,0,0,1,1.6,2,10.43,10.43,0,0,1,1.21,2.84,14.46,14.46,0,0,1,.46,3.89,8.75,8.75,0,0,1-.6,3.07,9.07,9.07,0,0,1-1.92,3.05,9.51,9.51,0,0,1-3.57,2.33,14.39,14.39,0,0,1-5.36.9,13.89,13.89,0,0,1-5.08-.83,8.94,8.94,0,0,1-3.39-2.2,8.53,8.53,0,0,1-1.86-2.93,8.94,8.94,0,0,1-.57-3.11v-3.94Z"/></svg>