<?xml version="1.0" encoding="UTF-8" standalone="no"?>
<!-- Generator: Adobe Illustrator 25.2.1, SVG Export Plug-In . SVG Version: 6.00 Build 0)  -->

<svg
   version="1.1"
   id="katman_1"
   x="0px"
   y="0px"
   viewBox="0 0 106.6 35"
   style="enable-background:new 0 0 106.6 35;"
   xml:space="preserve"
   sodipodi:docname="logo-sky-light.svg"
   inkscape:version="1.2.2 (b0a8486541, 2022-12-01)"
   xmlns:inkscape="http://www.inkscape.org/namespaces/inkscape"
   xmlns:sodipodi="http://sodipodi.sourceforge.net/DTD/sodipodi-0.dtd"
   xmlns="http://www.w3.org/2000/svg"
   xmlns:svg="http://www.w3.org/2000/svg"><defs
   id="defs1773" /><sodipodi:namedview
   id="namedview1771"
   pagecolor="#ffffff"
   bordercolor="#999999"
   borderopacity="1"
   inkscape:showpageshadow="0"
   inkscape:pageopacity="0"
   inkscape:pagecheckerboard="0"
   inkscape:deskcolor="#d1d1d1"
   showgrid="false"
   inkscape:zoom="10.102473"
   inkscape:cx="66.518363"
   inkscape:cy="19.005247"
   inkscape:window-width="1920"
   inkscape:window-height="1015"
   inkscape:window-x="0"
   inkscape:window-y="0"
   inkscape:window-maximized="1"
   inkscape:current-layer="katman_1" />
<style
   type="text/css"
   id="style1732">
	.st0{fill:#4E4E4E;}
	.st1{fill:#FFFFFF;}
	.st2{fill:#0EC8EB;}
	.st3{fill:#CBCECA;}
</style>
<g
   id="g1750">
	<path
   class="st0"
   d="M36.1,19.4h5.1c0.2,0,0.4,0.1,0.6,0.2c0.1,0.1,0.2,0.3,0.2,0.6c0,0.2-0.1,0.4-0.2,0.6   c-0.1,0.1-0.3,0.2-0.6,0.2h-5.8c-0.3,0-0.5-0.1-0.6-0.2c-0.1-0.2-0.2-0.4-0.2-0.6v-7.5c0-0.3,0.1-0.5,0.2-0.6   c0.2-0.2,0.4-0.2,0.6-0.2h5.8c0.2,0,0.4,0.1,0.6,0.2c0.1,0.1,0.2,0.3,0.2,0.6c0,0.2-0.1,0.4-0.2,0.6c-0.1,0.1-0.3,0.2-0.6,0.2h-5.1   v2.3h4.1c0.2,0,0.4,0.1,0.6,0.2c0.1,0.1,0.2,0.3,0.2,0.5c0,0.2-0.1,0.4-0.2,0.5c-0.1,0.1-0.3,0.2-0.6,0.2h-4.1V19.4z"
   id="path1734"
   style="fill:#121212;fill-opacity:1" />
	<path
   class="st0"
   d="M46.7,14.1c0.9,0,1.5,0.3,2,0.8c0.5,0.5,0.7,1.3,0.7,2.3v3c0,0.3-0.1,0.5-0.2,0.6C49,20.9,48.8,21,48.6,21   s-0.4-0.1-0.5-0.2c-0.1-0.1-0.2-0.3-0.2-0.6v-2.8c0-0.6-0.1-1.1-0.4-1.4c-0.3-0.3-0.7-0.5-1.2-0.5c-0.5,0-1,0.2-1.3,0.6   c-0.3,0.4-0.5,0.9-0.5,1.5v2.6c0,0.3-0.1,0.5-0.2,0.6S44,21,43.8,21c-0.2,0-0.4-0.1-0.5-0.2c-0.1-0.1-0.2-0.3-0.2-0.6V15   c0-0.3,0.1-0.5,0.2-0.6c0.1-0.1,0.3-0.2,0.5-0.2c0.2,0,0.4,0.1,0.5,0.2c0.1,0.1,0.2,0.3,0.2,0.6v0h0C45,14.5,45.7,14.1,46.7,14.1z"
   id="path1736"
   style="fill:#121212;fill-opacity:1" />
	<path
   class="st0"
   d="M52.1,12.9c-0.2,0.2-0.4,0.2-0.6,0.2s-0.5-0.1-0.6-0.2c-0.2-0.2-0.2-0.4-0.2-0.7s0.1-0.5,0.2-0.7   c0.2-0.2,0.4-0.2,0.6-0.2s0.5,0.1,0.6,0.2c0.2,0.2,0.2,0.4,0.2,0.7S52.2,12.8,52.1,12.9z M50.9,14.4c0.1-0.1,0.3-0.2,0.5-0.2   c0.2,0,0.4,0.1,0.5,0.2c0.1,0.1,0.2,0.3,0.2,0.6v5.1c0,0.3-0.1,0.5-0.2,0.6S51.7,21,51.4,21c-0.2,0-0.4-0.1-0.5-0.2   c-0.1-0.1-0.2-0.3-0.2-0.6V15C50.7,14.8,50.8,14.6,50.9,14.4z"
   id="path1738"
   style="fill:#121212;fill-opacity:1" />
	<path
   class="st0"
   d="M59.5,14.2c0.2,0,0.4,0.1,0.5,0.2c0.1,0.1,0.2,0.3,0.2,0.6v5.3c0,0.5-0.1,1-0.3,1.5c-0.2,0.5-0.6,0.9-1.1,1.3   c-0.6,0.3-1.2,0.5-2,0.5c-0.7,0-1.2-0.1-1.5-0.2c-0.6-0.2-1.1-0.5-1.3-0.8c-0.1-0.1-0.1-0.3-0.1-0.5c0-0.5,0.3-0.7,0.7-0.7   c0.2,0,0.3,0.1,0.4,0.2c0.4,0.4,1,0.6,1.8,0.6c0.6,0,1.1-0.2,1.4-0.5c0.3-0.3,0.5-0.8,0.5-1.3v-0.5h0c-0.5,0.6-1.3,0.9-2.2,0.9   c-0.9,0-1.7-0.3-2.2-0.9c-0.2-0.3-0.4-0.6-0.6-0.9c-0.1-0.3-0.2-0.6-0.2-0.8c0-0.2,0-0.4,0-0.7c0-0.5,0.1-1,0.3-1.5   c0.2-0.5,0.5-1,1.1-1.3c0.5-0.4,1.1-0.5,1.8-0.5c0.9,0,1.7,0.3,2.2,1h0V15c0-0.2,0.1-0.4,0.2-0.6C59.1,14.3,59.2,14.2,59.5,14.2z    M56.8,19.4c0.6,0,1.1-0.2,1.4-0.5c0.4-0.4,0.5-0.8,0.5-1.4s-0.2-1.1-0.5-1.4c-0.4-0.4-0.8-0.5-1.4-0.5c-0.6,0-1,0.2-1.3,0.5   c-0.3,0.4-0.5,0.8-0.5,1.4c0,0.6,0.2,1.1,0.5,1.4C55.8,19.3,56.2,19.4,56.8,19.4z"
   id="path1740"
   style="fill:#121212;fill-opacity:1" />
	<path
   class="st0"
   d="M69,14.1c1.6,0,2.5,1,2.5,2.9v3.1c0,0.3-0.1,0.5-0.2,0.6S71,21,70.8,21s-0.4-0.1-0.5-0.2   c-0.1-0.1-0.2-0.3-0.2-0.6v-2.9c0-1.1-0.4-1.7-1.3-1.7c-0.4,0-0.8,0.2-1,0.5c-0.2,0.3-0.4,0.8-0.4,1.4v2.7c0,0.3-0.1,0.5-0.2,0.6   S66.8,21,66.6,21s-0.4-0.1-0.5-0.2s-0.2-0.3-0.2-0.6v-2.9c0-1.1-0.4-1.7-1.3-1.7c-0.4,0-0.8,0.2-1,0.5c-0.2,0.3-0.4,0.8-0.4,1.4   v2.7c0,0.3-0.1,0.5-0.2,0.6c-0.1,0.1-0.3,0.2-0.5,0.2s-0.4-0.1-0.5-0.2s-0.2-0.3-0.2-0.6V15c0-0.2,0.1-0.4,0.2-0.6   c0.1-0.1,0.3-0.2,0.5-0.2c0.5,0,0.7,0.3,0.7,0.8h0c0.4-0.6,1-0.9,1.7-0.9c0.9,0,1.5,0.3,1.9,1h0C67.4,14.5,68.1,14.1,69,14.1z"
   id="path1742"
   style="fill:#121212;fill-opacity:1" />
	<path
   class="st0"
   d="M78.7,14.2c0.2,0,0.4,0.1,0.5,0.2c0.1,0.1,0.2,0.3,0.2,0.6v5.1c0,0.3-0.1,0.5-0.2,0.6S78.9,21,78.7,21   c-0.2,0-0.4-0.1-0.5-0.2s-0.2-0.3-0.2-0.6v-0.1h0c-0.5,0.6-1.2,1-2.2,1c-0.9,0-1.7-0.3-2.2-0.9c-0.2-0.3-0.4-0.6-0.6-1   c-0.1-0.3-0.2-0.6-0.2-0.8c0-0.2,0-0.4-0.1-0.8c0-0.5,0.1-1,0.3-1.6c0.2-0.5,0.5-1,1-1.4c0.5-0.4,1.1-0.6,1.8-0.5   c1,0,1.7,0.3,2.2,1h0V15c0-0.2,0.1-0.4,0.2-0.6C78.3,14.3,78.4,14.2,78.7,14.2z M74.6,19.1c0.4,0.4,0.8,0.6,1.4,0.6s1-0.2,1.4-0.6   c0.4-0.4,0.5-0.9,0.5-1.5c0-0.6-0.2-1.1-0.5-1.5c-0.4-0.4-0.8-0.6-1.4-0.6c-0.6,0-1,0.2-1.4,0.6c-0.4,0.4-0.5,0.9-0.5,1.5   S74.3,18.7,74.6,19.1z"
   id="path1744"
   style="fill:#121212;fill-opacity:1" />
	<path
   class="st1"
   d="M84.1,11.7H91c0.2,0,0.4,0.1,0.6,0.2c0.1,0.1,0.2,0.3,0.2,0.6c0,0.2-0.1,0.4-0.2,0.6c-0.1,0.1-0.3,0.2-0.6,0.2   h-2.6v6.9c0,0.3-0.1,0.5-0.2,0.6S87.8,21,87.5,21c-0.2,0-0.4-0.1-0.6-0.2c-0.1-0.2-0.2-0.4-0.2-0.6v-6.9h-2.7   c-0.2,0-0.4-0.1-0.6-0.2c-0.1-0.1-0.2-0.3-0.2-0.6c0-0.2,0.1-0.4,0.2-0.6C83.6,11.7,83.8,11.7,84.1,11.7z"
   id="path1746"
   style="fill:#121212;fill-opacity:1" />
	<path
   class="st1"
   d="M101.4,11.6c0.3,0,0.6,0.1,0.7,0.3c0.2,0.2,0.3,0.5,0.3,0.8v7.4c0,0.3-0.1,0.5-0.2,0.6s-0.3,0.2-0.6,0.2   c-0.2,0-0.4-0.1-0.6-0.2c-0.1-0.2-0.2-0.4-0.2-0.6v-5.6h0l-2.5,4.3c-0.2,0.3-0.4,0.5-0.7,0.5c-0.3,0-0.6-0.2-0.7-0.5l-2.6-4.3h0   v5.7c0,0.3-0.1,0.5-0.2,0.6c-0.1,0.2-0.3,0.2-0.6,0.2c-0.2,0-0.4-0.1-0.6-0.2c-0.1-0.2-0.2-0.4-0.2-0.6v-7.4c0-0.3,0.1-0.6,0.3-0.8   c0.2-0.2,0.4-0.3,0.8-0.3c0.4,0,0.8,0.2,1,0.6l2.8,4.8l2.8-4.8C100.6,11.8,100.9,11.6,101.4,11.6z"
   id="path1748"
   style="fill:#121212;fill-opacity:1" />
</g>
<g
   id="g1768">
	<path
   class="st2"
   d="M27.7,8.9c0-1.3-0.4-1.8-1.8-1.7c-2.3,0.2-4.5-0.2-6.6-1.4c-0.7-0.5-1.3-1-2-1.5C16.7,4,16.1,4,15.6,4.5   c-2.5,2.1-5.3,3-8.5,2.8C5.8,7.2,5.3,7.6,5.3,8.9c0,3.2,0,6.5,0,9.7c0,0.4,0,0.8,0.2,1.1c0.1,1.1,0.5,2.2,1,3.2   c2.1,4,5.6,6.3,9.7,8c0.1,0,0.2,0,0.3,0c0.1,0,0.2,0,0.3,0c0.2,0,0.3-0.1,0.4-0.1c2.4-1,4.7-2.3,6.6-4.2c2.3-2.3,3.8-4.9,3.9-8.2   C27.7,15.2,27.7,12.1,27.7,8.9z M5.6,18.6L5.6,18.6L5.6,18.6L5.6,18.6z M26.1,18.7c-0.1,3-1.7,5.4-3.9,7.3   c-1.5,1.3-3.3,2.3-5.2,3.1c-0.2,0.1-0.5,0.2-0.7,0.1c-3.6-1.6-6.7-3.6-8.5-7.3c-0.5-1-0.7-2.1-0.9-3.2c0.1-3.1,0.1-6.2,0-9.2   c0-0.5,0.1-0.8,0.6-0.7c3.2,0.2,6-0.7,8.6-2.6c0.4-0.3,0.6-0.3,1,0c0.4,0.3,0.8,0.6,1.2,0.8c2.2,1.3,4.6,2,7.1,1.8   c0.6,0,0.7,0.1,0.7,0.7C26.1,12.6,26.2,15.6,26.1,18.7z"
   id="path1752" />
	
	<polygon
   class="st3"
   points="5.5,18.6 5.5,18.6 5.6,18.6  "
   id="polygon1756" />
	<path
   class="st2"
   d="M16.6,12.8c-1,0-2-0.1-3-0.2c-0.5-0.1-0.6-0.3-0.5-0.7c0.2-0.5,0.3-1.1,0.5-1.7c0.4-1.2,0.9-1.5,2-1.2   c0.6,0.2,1.2,0.1,1.9,0c1.2-0.3,1.7,0,2,1.2c0.8,2.8,1.1,2.4-1.8,2.6C17.3,12.8,17,12.8,16.6,12.8z"
   id="path1758" />
	<path
   class="st2"
   d="M22.2,22.4c-2.7,0.5-4.4,2.3-6.1,4.4c-0.1-1.1,0.2-2,0.5-2.9c0.5-1.2,1.2-2.3,2.3-3c0.9-0.7,1.4-1.5,1.6-2.6   c0.1-0.4,0.2-0.7,0.7-0.8c0.5-0.1,0.7,0,1,0.5c0.6,0.9,1.2,1.8,1.8,2.6c0.2,0.2,0.4,0.4,0.3,0.9c-0.8-0.3-1.5-0.6-2.2-0.9   c-0.5-0.2-0.8-0.1-1.1,0.3c-0.3,0.5,0.1,0.6,0.4,0.9C21.7,21.9,22,22,22.2,22.4z"
   id="path1760" />
	<path
   class="st2"
   d="M8.6,21.4c0.4-1.4,1.2-2.6,1.9-3.8c0.3-0.5,1-0.2,1.1,0.4c0.3,1.1,0.8,2.2,1.5,3.1c0.5,0.7,1.2,1.4,2,1.8   c0.5,0.3,0.6,1.6,0.1,1.9c-0.2,0.1-0.3,0-0.5-0.1c-1.3-0.5-2.6-1.1-3.8-1.6c-0.5-0.2-0.5-0.4-0.1-0.8c0.4-0.3,0.9-0.6,0.5-1.3   c-0.2-0.4-0.4-0.5-0.8-0.3C9.9,20.9,9.3,21.3,8.6,21.4L8.6,21.4z"
   id="path1762" />
	<path
   class="st2"
   d="M17.6,19.9c-0.5,0-0.6-0.4-0.8-0.7c-0.6-0.9-0.8-0.9-1.4,0c-0.3,0.4-0.4,0.9-1.1,0.7c-0.8-0.2-1.4-0.6-1.7-1.3   c-0.1-0.3,0.1-0.5,0.4-0.5c2.1,0,4.2-0.1,6.3-0.1c0.6,0,0.5,0.3,0.4,0.7C19.4,19.4,18.4,19.9,17.6,19.9z"
   id="path1764" />
	<path
   class="st2"
   d="M19.5,17c-4,0.4-8,0.1-12-1c2.1-0.6,4-2.2,6.5-1.5c1.9,0.5,3.9,0.4,5.8-0.2c0.1,0,0.4-0.1,0.7-0.1   c0.7,0,1.3,0.2,1.6,0.4c0.6,0.2,1.2,0.5,1.8,0.7c0.6,0.2,1.3,0.4,1.9,0.7c0,0-0.7,0.3-0.8,0.4s-1,0.3-1.1,0.3s-0.7,0.1-0.9,0.2   c-0.2,0-2.2,0.2-2.2,0.2L19.5,17z"
   id="path1766" />
</g>
</svg>
